<?xml version="1.0" encoding="UTF-8"?><svg id="Layer_2" xmlns="http://www.w3.org/2000/svg" width="288.429" height="288.429" viewBox="0 0 288.429 288.429"><defs><style>.cls-1{stroke-width:0px;}</style></defs><g id="Layer_1-2"><polygon class="cls-1" points="144.214 0 112.324 31.891 224.648 144.214 112.324 256.538 144.214 288.429 288.429 144.214 144.214 0"/><polygon class="cls-1" points="185.679 176.112 217.577 144.214 108.788 35.426 0 144.214 31.898 176.112 108.788 99.221 185.679 176.112"/><polygon class="cls-1" points="154.948 152.452 108.781 198.619 62.621 152.459 35.433 179.647 108.788 253.003 182.144 179.647 154.948 152.452"/><polygon class="cls-1" points="124.444 121.948 108.788 106.292 66.157 148.924 108.781 191.548 124.437 175.893 97.467 148.924 124.444 121.948"/><polygon class="cls-1" points="151.413 148.917 127.979 125.483 104.538 148.924 113.158 157.543 127.979 142.722 142.793 157.536 151.413 148.917"/><rect class="cls-1" x="119.996" y="153.1" width="15.96" height="15.95" transform="translate(-76.414 137.671) rotate(-45)"/></g></svg>